<svg xmlns="http://www.w3.org/2000/svg" width="43" height="51" viewBox="0 0 43 51">
    <path fill="transparent" d="M0 0h43v51H0z" />
    <path
        d="M14.86 10c2.65.36 5.54-.39 9.73 0m-9.73 0c2.98.34 5.34-.01 9.73 0m0 0c3.83.23 3.21 2.11 4.86 4.86M24.59 10c4.05 1.36 4.39 3.49 4.86 4.86m0 0c.93 4.24-1.07 8.19 0 16.3m0-16.3c-.29 2.78.47 7.39 0 16.3m0 0c-1.48 3.23-1.89 5.02-4.86 4.86m4.86-4.86c2.24 3.05-1.17 3.72-4.86 4.86m0 0c-3.69.7-7.34-.66-9.73 0m9.73 0c-3.68.37-8.05.29-9.73 0m0 0c-1.74 1.84-6.2-3.14-4.86-4.86m4.86 4.86c-1.88-1.03-2.65-1.66-4.86-4.86m0 0c-1.29-4.26.85-10.61 0-16.3m0 16.3c.1-4.81-.45-9.15 0-16.3m0 0c-1.07-4.78-.02-6.08 4.86-4.86M10 14.86c1.78-2.3 3.21-4.02 4.86-4.86"
        stroke="#1e1e1e" stroke-width="2" fill="none" stroke-linecap="round" />
    <g stroke-linecap="round">
        <path
            d="M19.141 15.958c2.93.17 4.36.43 9.73 0 2.4 1.83 2.61 2.79 4.86 4.86.88 4.36-1.93 10.08 0 16.3-3.48 4.66 1.04 8.12-4.86 4.86-3.47.32-3.74 1.13-9.73 0-.54-2.12-4.88-1.15-4.86-4.86 1.16-4.05-2.11-6.03 0-16.3.65.19 3.89-4.53 4.86-4.86"
            stroke-width="0" fill="#fff" />
        <path
            d="M19.141 15.958c2.11-.06 5.32-.53 9.73 0m-9.73 0c2.03.23 4.62.42 9.73 0m0 0c4.07 1.79 3.91 1 4.86 4.86m-4.86-4.86c1.11.67 4.56 1.39 4.86 4.86m0 0c-.45 3.65.03 9.45 0 16.3m0-16.3c.68 4.29.33 10.02 0 16.3m0 0c.64 1.48.34 4.43-4.86 4.86m4.86-4.86c.55 3.18-.97 3.65-4.86 4.86m0 0c-3.72-.21-6.01.76-9.73 0m9.73 0c-3.18-.14-6.37-.25-9.73 0m0 0c-2.01 1.2-3.4-3.33-4.86-4.86m4.86 4.86c-1.37.87-5.72-.52-4.86-4.86m0 0c-1.63-5.04-.1-9.8 0-16.3m0 16.3c-.22-3.55-.6-8.1 0-16.3m0 0c1.78-3.4-.34-5.01 4.86-4.86m-4.86 4.86c1.74-5.16 3.08-4.81 4.86-4.86"
            stroke="#1e1e1e" stroke-width="2" fill="none" />
    </g>
    <path
        d="M18.93 23.268c1.99.07 9.85.15 11.7.03m-10.86-.46c1.98-.05 8.92-.33 10.56-.32M18.09 29.035c2.1-.1 10.18-.42 12.23-.58m-11.3.16c2.05-.03 9.01.51 10.86.49M17.948 33.207c1.89-.22 10.38-.5 12.35-.56m-11.6 1.51c1.78-.15 9.16-.75 11.17-.86M18.233 37.392c1.3-.15 6.88-.62 8.22-.7m-7.73.36c1.27-.13 6.34-.12 7.56-.08"
        stroke="#1e1e1e" fill="none" stroke-linecap="round" />
</svg>