<svg version="1.1" xmlns="http://www.w3.org/2000/svg"
    viewBox="0 0 164.2441808704757 164.2441808704757" width="164.2441808704757"
    height="164.2441808704757">
    <!-- svg-source:excalidraw -->

    <defs>
        <style class="style-fonts">
            @font-face {
            font-family: "Virgil";
            src: url("https://excalidraw.com/Virgil.woff2");
            }
            @font-face {
            font-family: "Cascadia";
            src: url("https://excalidraw.com/Cascadia.woff2");
            }
            @font-face {
            font-family: "Assistant";
            src: url("https://excalidraw.com/Assistant-Regular.woff2");
            }
        </style>

    </defs>
    <rect x="0" y="0" width="164.2441808704757" height="164.2441808704757" fill="transparent"></rect>
    <g stroke-linecap="round"
        transform="translate(10 10) rotate(0 72.12209043523785 72.12209043523785)">
        <path
            d="M32 0 C53.4 -0.66, 76.59 0, 112.24 0 M32 0 C63.86 -0.02, 95.67 1.24, 112.24 0 M112.24 0 C134.94 -0.24, 143.49 11.14, 144.24 32 M112.24 0 C132.82 2.22, 144.02 10.23, 144.24 32 M144.24 32 C144.59 62.11, 142.47 87.02, 144.24 112.24 M144.24 32 C143.03 52.18, 144.69 72.05, 144.24 112.24 M144.24 112.24 C145.58 132.65, 132.76 145.95, 112.24 144.24 M144.24 112.24 C143.07 133.5, 132.31 144.34, 112.24 144.24 M112.24 144.24 C89.79 143.03, 69.29 144.33, 32 144.24 M112.24 144.24 C95.45 144.75, 76.46 143.75, 32 144.24 M32 144.24 C12.62 144.74, -1.65 134.03, 0 112.24 M32 144.24 C10.88 145.82, 1.83 133.01, 0 112.24 M0 112.24 C0.44 87.25, -2.14 59.13, 0 32 M0 112.24 C-0.97 95.86, -0.12 79.1, 0 32 M0 32 C-0.25 12.54, 11.78 0.8, 32 0 M0 32 C0.57 11.01, 12.82 -0.49, 32 0"
            stroke="#1e1e1e" stroke-width="1" fill="none"></path>
    </g>
    <g transform="translate(42.950108623714414 64.62209043523785) rotate(0 39.17198181152344 17.5)">
        <text x="39.17198181152344" y="24.528" font-family="Virgil, Segoe UI Emoji" font-size="28px"
            fill="#1e1e1e" text-anchor="middle" style="white-space: pre;" direction="ltr"
            dominant-baseline="alphabetic">&gt; c.sh</text>
    </g>
    <g stroke-linecap="round">
        <g
            transform="translate(123.26766480501556 96.98456026462532) rotate(0 7.196564338440226 -16.426940337743986)">
            <path
                d="M0.09 0.4 C2.62 -5.1, 12.31 -27.51, 14.75 -33.13 M-0.52 0.13 C1.99 -5.29, 11.99 -27.06, 14.5 -32.58"
                stroke="#1e1e1e" stroke-width="1" fill="none"></path>
        </g>
    </g>
    <mask></mask>
</svg>